<svg width="1657" height="1149" viewBox="0 0 1657 1149" fill="none" xmlns="http://www.w3.org/2000/svg">
<g opacity="0.95" clip-path="url(#clip0_301_2)">
<rect width="1657" height="1149" fill="url(#paint0_linear_301_2)"/>
<path opacity="0.35" d="M474.958 812.371L493.008 592.36L949 614.999L982.346 634.653L1009.14 626.566L1029.01 630.75L1082.41 649.09L1097.35 665.612L1113.24 669.159L1129.96 721.262L1144.24 742.764L1143.12 775.245L1161.77 800.399L1157.86 812.272L1170.69 875.749L1170.44 883.244L1183.52 910.209L1195.74 918.632L1208.89 943.598L925.733 943.394L638.402 933.542L642.137 824.606L474.958 812.371Z" stroke="black" stroke-width="6"/>
<path d="M283.536 307H292.272L322.608 239.8H314.256L289.2 297.112L282.192 239.8H274.416L248.496 297.112L242.544 239.8H234.288L242.256 307H250.896L276.528 251.224L283.536 307ZM325.353 293.944C325.353 302.296 331.977 308.248 341.865 308.248C348.585 308.248 353.193 305.752 356.265 302.776L356.457 307H362.985L368.457 274.072C370.281 263.416 365.001 255.832 352.137 255.832C343.689 255.832 336.873 259.096 333.225 261.208L335.433 266.968C339.273 264.952 344.841 262.552 350.697 262.552C358.089 262.552 362.121 266.584 360.969 273.592L359.913 279.736C358.281 277.624 353.865 275.224 347.529 275.224C335.145 275.224 325.353 283.288 325.353 293.944ZM333.225 292.888C333.225 286.456 339.177 281.272 347.529 281.272C354.249 281.272 358.473 284.728 358.473 290.104C358.473 296.92 352.233 301.912 344.169 301.912C337.257 301.912 333.225 297.976 333.225 292.888ZM392.531 257.08H386.483L385.427 263.512H391.283L386.867 290.872C385.043 302.104 389.075 307.672 398.195 307.672C400.787 307.672 402.803 307.384 402.803 307.384L403.955 300.568C403.955 300.568 402.419 300.76 401.459 300.76C395.411 300.76 393.011 298.552 394.547 289.24L398.867 263.512H409.811L410.867 257.08H399.923L401.747 246.616H394.355L392.531 257.08ZM417.675 297.592C419.499 302.2 423.819 308.248 433.899 308.248C445.515 308.248 453.003 302.296 453.003 292.792C453.003 279.16 431.595 279.352 431.595 269.848C431.595 264.952 436.011 262.168 441.099 262.168C447.531 262.168 449.451 265.912 450.411 268.6L456.459 265.432C455.595 261.784 451.467 255.832 442.155 255.832C432.171 255.832 424.107 261.304 424.107 270.232C424.107 284.152 445.419 283.096 445.419 292.888C445.419 298.456 440.235 301.816 434.763 301.816C427.947 301.816 424.971 298.168 423.339 294.328L417.675 297.592ZM476.33 285.208C476.33 272.728 486.026 262.744 498.122 262.744C507.626 262.744 513.674 269.656 513.674 278.968C513.674 291.544 503.786 301.336 491.69 301.336C482.282 301.336 476.33 294.616 476.33 285.208ZM468.458 286.072C468.458 298.936 477.194 308.248 490.538 308.248C507.242 308.248 521.45 295 521.45 278.104C521.45 265.24 512.81 255.832 499.37 255.832C482.858 255.832 468.458 268.984 468.458 286.072ZM565.646 255.832C558.734 255.832 552.494 259.768 549.326 264.28L550.574 257.08H543.086L534.734 307H542.318L547.406 276.664C548.75 268.408 554.99 262.744 562.67 262.744C569.486 262.744 573.71 267.544 572.366 275.512L567.086 307H574.67L579.854 275.8C581.774 264.472 577.262 255.832 565.646 255.832ZM629.079 307H662.007L663.159 299.992H638.007L648.087 239.8H640.311L629.079 307ZM679.788 286.456C679.788 299.416 688.044 308.248 701.484 308.248C712.812 308.248 720.588 302.2 724.14 297.496L719.532 293.752C716.556 297.112 711.18 301.528 702.732 301.528C692.364 301.528 685.932 294.808 687.756 283.672H727.692C727.98 282.52 728.652 279.736 728.652 276.376C728.652 264.088 721.548 255.832 708.204 255.832C692.46 255.832 679.788 269.464 679.788 286.456ZM688.908 278.008C690.924 268.6 698.7 262.36 707.724 262.36C715.98 262.36 722.316 267.64 721.068 278.008H688.908ZM787.637 307H795.989L821.237 257.08H812.981L792.917 298.168C792.917 298.168 792.917 297.976 786.485 257.08H778.901C758.741 297.976 758.549 298.168 758.549 298.168L752.405 257.08H744.245L752.693 307H761.045L781.013 267.352L787.637 307ZM828.284 307H835.868L844.22 257.08H836.636L828.284 307ZM837.308 244.984C837.308 247.576 839.036 249.496 841.628 249.496C844.892 249.496 847.868 246.808 847.868 243.544C847.868 240.952 846.044 239.032 843.356 239.032C840.188 239.032 837.308 241.72 837.308 244.984ZM854.861 297.592C856.685 302.2 861.005 308.248 871.085 308.248C882.701 308.248 890.189 302.296 890.189 292.792C890.189 279.16 868.781 279.352 868.781 269.848C868.781 264.952 873.197 262.168 878.285 262.168C884.717 262.168 886.637 265.912 887.597 268.6L893.645 265.432C892.781 261.784 888.653 255.832 879.341 255.832C869.357 255.832 861.293 261.304 861.293 270.232C861.293 284.152 882.605 283.096 882.605 292.888C882.605 298.456 877.421 301.816 871.949 301.816C865.133 301.816 862.157 298.168 860.525 294.328L854.861 297.592ZM906.892 281.656H931.372L932.524 274.552H908.044L906.892 281.656ZM946.914 307H954.69L959.586 277.816H971.01L981.282 307H989.922L978.402 276.184C988.002 273.304 993.378 264.376 993.378 255.064C993.378 245.464 987.33 239.8 975.234 239.8H958.146L946.914 307ZM960.738 271L964.77 246.712H973.602C981.762 246.712 985.122 250.456 985.122 256.216C985.122 266.296 979.266 271 970.05 271H960.738ZM1014.77 285.208C1014.77 272.728 1024.47 262.744 1036.57 262.744C1046.07 262.744 1052.12 269.656 1052.12 278.968C1052.12 291.544 1042.23 301.336 1030.13 301.336C1020.73 301.336 1014.77 294.616 1014.77 285.208ZM1006.9 286.072C1006.9 298.936 1015.64 308.248 1028.98 308.248C1045.69 308.248 1059.89 295 1059.89 278.104C1059.89 265.24 1051.25 255.832 1037.81 255.832C1021.3 255.832 1006.9 268.984 1006.9 286.072ZM1130.49 237.592H1122.81L1118.2 265.144C1117.24 262.552 1112.44 255.832 1102.07 255.832C1085.85 255.832 1073.56 269.272 1073.56 286.552C1073.56 299.32 1081.43 308.248 1094.01 308.248C1104.86 308.248 1111.29 300.952 1112.83 299.128L1111.48 307H1118.87L1130.49 237.592ZM1116.09 278.584C1116.09 290.776 1107.45 301.432 1095.55 301.432C1087.1 301.432 1081.43 295.192 1081.43 285.688C1081.43 272.632 1090.84 262.744 1101.98 262.744C1110.14 262.744 1116.09 268.6 1116.09 278.584ZM1171.03 255.832C1163.45 255.832 1157.11 260.44 1154.52 265.432L1155.96 257.08H1148.47L1140.12 307H1147.7L1151.74 283.096C1153.75 271.288 1159.22 263.416 1169.78 263.416L1171.03 255.832ZM1179.12 307H1186.71L1195.06 257.08H1187.47L1179.12 307ZM1188.15 244.984C1188.15 247.576 1189.87 249.496 1192.47 249.496C1195.73 249.496 1198.71 246.808 1198.71 243.544C1198.71 240.952 1196.88 239.032 1194.19 239.032C1191.03 239.032 1188.15 241.72 1188.15 244.984ZM1208.29 320.44C1212.13 323.128 1219.33 325.432 1225.86 325.432C1240.26 325.432 1251.49 319.288 1254.47 301.528L1261.86 257.08H1254.56L1253.22 265.144C1251.97 262.456 1247.17 255.832 1236.8 255.832C1220.77 255.832 1208.2 269.176 1208.2 286.648C1208.2 299.32 1215.88 308.248 1228.36 308.248C1239.3 308.248 1245.73 300.952 1247.27 299.128L1246.5 303.544C1244.68 314.296 1235.84 318.616 1226.34 318.616C1219.14 318.616 1213.76 315.64 1212.04 314.488L1208.29 320.44ZM1250.72 278.584C1250.72 290.968 1241.89 301.336 1230.18 301.336C1221.73 301.336 1215.97 295.096 1215.97 285.496C1215.97 272.44 1225.48 262.744 1236.52 262.744C1244.87 262.744 1250.72 268.696 1250.72 278.584ZM1291.37 308.248C1298.19 308.248 1304.52 304.312 1307.6 299.8L1306.35 307H1313.93L1322.28 257.08H1314.6L1309.52 287.416C1308.17 295.672 1301.93 301.336 1294.25 301.336C1287.53 301.336 1283.21 296.536 1284.56 288.568L1289.84 257.08H1282.25L1277.07 288.28C1275.15 299.608 1279.76 308.248 1291.37 308.248ZM1335.15 286.456C1335.15 299.416 1343.4 308.248 1356.84 308.248C1368.17 308.248 1375.95 302.2 1379.5 297.496L1374.89 293.752C1371.91 297.112 1366.54 301.528 1358.09 301.528C1347.72 301.528 1341.29 294.808 1343.11 283.672H1383.05C1383.34 282.52 1384.01 279.736 1384.01 276.376C1384.01 264.088 1376.91 255.832 1363.56 255.832C1347.82 255.832 1335.15 269.464 1335.15 286.456ZM1344.27 278.008C1346.28 268.6 1354.06 262.36 1363.08 262.36C1371.34 262.36 1377.67 267.64 1376.43 278.008H1344.27ZM1393.65 307H1431.67L1432.72 300.568H1404.21L1438.58 262.552L1439.54 257.08H1402.87L1401.81 263.608H1429.07L1394.51 301.624L1393.65 307Z" fill="white"/>
<path d="M368.816 829H396.016V824.392H374.768C375.344 816.648 395.376 809.352 395.376 796.04C395.376 788.872 390.576 783.368 382.064 783.368C373.168 783.368 369.712 790.152 369.008 793.864L373.552 795.144C374.512 791.496 376.88 788.232 381.936 788.232C387.12 788.232 390.064 791.624 390.064 796.168C390.064 807.624 368.816 814.6 368.816 827.08V829ZM420.065 791.56L425.249 789.448V829H430.433V784.2H426.209L418.465 787.272L420.065 791.56ZM488.58 829.256L492.612 825.928L488.708 821.256C492.164 816.904 493.444 812.808 494.276 807.624H489.412C488.708 811.912 488.004 814.408 485.636 817.672L476.74 807.432C484.292 803.528 489.092 799.496 489.092 792.84C489.092 787.336 484.868 783.368 478.02 783.368C469.06 783.368 464.068 789.768 464.068 796.168C464.068 799.688 465.668 802.312 467.46 804.488C461.828 807.304 457.348 811.528 457.348 818.056C457.348 824.52 462.148 829.832 470.852 829.832C476.484 829.832 481.604 827.592 484.932 824.712L488.58 829.256ZM471.62 825.224C466.5 825.224 462.532 822.408 462.532 817.608C462.532 812.68 466.244 809.544 470.212 807.944L481.988 821.32C479.556 823.432 475.652 825.224 471.62 825.224ZM468.868 795.784C468.868 791.24 472.772 787.656 477.7 787.656C481.796 787.656 484.228 790.216 484.228 793.672C484.228 798.472 479.492 801.992 473.924 804.552C471.364 801.992 468.868 799.24 468.868 795.784ZM513.281 829H540.481V824.392H519.233C519.809 816.648 539.841 809.352 539.841 796.04C539.841 788.872 535.041 783.368 526.529 783.368C517.633 783.368 514.177 790.152 513.473 793.864L518.017 795.144C518.977 791.496 521.345 788.232 526.401 788.232C531.585 788.232 534.529 791.624 534.529 796.168C534.529 807.624 513.281 814.6 513.281 827.08V829ZM563.186 829H590.386V824.392H569.138C569.714 816.648 589.746 809.352 589.746 796.04C589.746 788.872 584.946 783.368 576.434 783.368C567.538 783.368 564.082 790.152 563.378 793.864L567.922 795.144C568.882 791.496 571.25 788.232 576.306 788.232C581.49 788.232 584.434 791.624 584.434 796.168C584.434 807.624 563.186 814.6 563.186 827.08V829ZM648.861 829H670.813V824.328H654.045V808.52H668.061V803.848H654.045V788.936H670.109V784.2H648.861V829ZM710.213 829L723.013 795.72H717.637L707.461 823.304L697.221 795.72H691.781L704.645 829H710.213ZM742.916 812.488C742.916 822.728 749.892 829.832 760.004 829.832C767.556 829.832 771.908 825.736 773.764 822.6L770.436 820.168C768.836 822.408 765.7 825.352 760.068 825.352C753.156 825.352 748.164 820.872 748.1 813.448H774.788C774.852 812.808 774.852 812.104 774.852 811.912C774.852 801.928 768.836 794.888 759.044 794.888C750.212 794.888 742.916 801.864 742.916 812.488ZM748.356 809.672C748.74 803.4 753.604 799.24 759.044 799.24C764.548 799.24 769.348 802.76 769.668 809.672H748.356ZM813.472 794.888C808.864 794.888 805.152 797.512 803.552 800.52V795.72H798.56V829H803.616V808.776C803.616 803.272 807.136 799.496 812.256 799.496C816.8 799.496 820.128 802.696 820.128 808.008V829H825.184V808.2C825.184 800.648 821.216 794.888 813.472 794.888ZM851.286 795.72H847.382V800.008H851.286V817.608C851.286 825.096 854.166 829.448 860.822 829.448C862.55 829.448 863.894 829.256 863.894 829.256V824.776C863.894 824.776 863.126 824.84 862.486 824.84C858.134 824.84 856.342 823.368 856.342 817.16V800.008H863.638V795.72H856.342V788.744H851.286V795.72ZM921.291 829H926.475V810.248H933.579C941.451 810.248 946.955 805.192 946.955 797.128C946.955 789 941.707 784.2 933.579 784.2H921.291V829ZM926.475 805.64V788.808H933.131C938.507 788.808 941.643 792.008 941.643 797.128C941.643 802.312 938.507 805.64 933.131 805.64H926.475ZM973.311 812.36C973.311 805.064 978.303 799.496 985.471 799.496C992.639 799.496 997.759 805 997.759 812.36C997.759 819.784 992.639 825.224 985.471 825.224C978.367 825.224 973.311 819.848 973.311 812.36ZM968.127 812.36C968.127 822.472 975.487 829.832 985.471 829.832C995.455 829.832 1002.88 822.344 1002.88 812.36C1002.88 802.376 995.583 794.888 985.535 794.888C975.615 794.888 968.127 802.312 968.127 812.36ZM1041.56 794.888C1036.5 794.888 1032.79 797.96 1031.64 801.288V795.72H1026.65V829H1031.7V813.064C1031.7 805.96 1033.94 799.944 1041.56 799.944V794.888ZM1066.81 795.72H1062.91V800.008H1066.81V817.608C1066.81 825.096 1069.69 829.448 1076.35 829.448C1078.08 829.448 1079.42 829.256 1079.42 829.256V824.776C1079.42 824.776 1078.65 824.84 1078.01 824.84C1073.66 824.84 1071.87 823.368 1071.87 817.16V800.008H1079.16V795.72H1071.87V788.744H1066.81V795.72ZM1103.61 829H1108.73V800.008H1115.83V795.72H1108.73V793.992C1108.73 789.384 1110.77 787.336 1114.55 787.336C1115.32 787.336 1116.15 787.464 1116.15 787.464V783.048C1116.15 783.048 1115.13 782.92 1114.04 782.92C1108.66 782.92 1103.61 785.608 1103.61 793.992V795.72H1099.89V800.008H1103.61V829ZM1140.99 812.36C1140.99 805.064 1145.99 799.496 1153.15 799.496C1160.32 799.496 1165.44 805 1165.44 812.36C1165.44 819.784 1160.32 825.224 1153.15 825.224C1146.05 825.224 1140.99 819.848 1140.99 812.36ZM1135.81 812.36C1135.81 822.472 1143.17 829.832 1153.15 829.832C1163.14 829.832 1170.56 822.344 1170.56 812.36C1170.56 802.376 1163.27 794.888 1153.22 794.888C1143.3 794.888 1135.81 802.312 1135.81 812.36ZM1194.33 829H1199.39V782.728H1194.33V829ZM1225.36 829H1230.42V795.72H1225.36V829ZM1224.4 787.144C1224.4 789.128 1225.94 790.664 1227.86 790.664C1229.84 790.664 1231.38 789.128 1231.38 787.144C1231.38 785.224 1229.84 783.688 1227.86 783.688C1225.94 783.688 1224.4 785.224 1224.4 787.144ZM1259.33 812.36C1259.33 805.064 1264.33 799.496 1271.49 799.496C1278.66 799.496 1283.78 805 1283.78 812.36C1283.78 819.784 1278.66 825.224 1271.49 825.224C1264.39 825.224 1259.33 819.848 1259.33 812.36ZM1254.15 812.36C1254.15 822.472 1261.51 829.832 1271.49 829.832C1281.48 829.832 1288.9 822.344 1288.9 812.36C1288.9 802.376 1281.61 794.888 1271.56 794.888C1261.64 794.888 1254.15 802.312 1254.15 812.36Z" fill="white"/>
<path d="M441.792 702H445.68L448.032 687.936H453.36C460.032 687.936 465.216 683.328 465.216 676.368C465.216 671.376 462 668.4 456.624 668.4H447.408L441.792 702ZM448.608 684.48L450.72 671.856H455.712C459.264 671.856 461.184 673.824 461.184 676.992C461.184 681.36 458.256 684.48 453.6 684.48H448.608ZM479.175 676.416C475.767 676.416 472.647 678.384 471.063 680.64L473.319 667.296H469.527L463.719 702H467.511L470.055 686.832C470.727 682.704 473.895 679.872 477.735 679.872C481.095 679.872 483.255 682.272 482.583 686.256L479.943 702H483.735L486.327 686.4C487.287 680.736 484.983 676.416 479.175 676.416ZM492.224 691.104C492.224 684.864 497.072 679.872 503.12 679.872C507.872 679.872 510.896 683.328 510.896 687.984C510.896 694.272 505.952 699.168 499.904 699.168C495.2 699.168 492.224 695.808 492.224 691.104ZM488.288 691.536C488.288 697.968 492.656 702.624 499.328 702.624C507.68 702.624 514.784 696 514.784 687.552C514.784 681.12 510.464 676.416 503.744 676.416C495.488 676.416 488.288 682.992 488.288 691.536ZM519.986 677.04H516.962L516.434 680.256H519.362L517.154 693.936C516.242 699.552 518.258 702.336 522.818 702.336C524.114 702.336 525.122 702.192 525.122 702.192L525.698 698.784C525.698 698.784 524.93 698.88 524.45 698.88C521.426 698.88 520.226 697.776 520.994 693.12L523.154 680.256H528.626L529.154 677.04H523.682L524.594 671.808H520.898L519.986 677.04ZM531.79 691.104C531.79 684.864 536.638 679.872 542.686 679.872C547.438 679.872 550.462 683.328 550.462 687.984C550.462 694.272 545.518 699.168 539.47 699.168C534.766 699.168 531.79 695.808 531.79 691.104ZM527.854 691.536C527.854 697.968 532.222 702.624 538.894 702.624C547.246 702.624 554.35 696 554.35 687.552C554.35 681.12 550.03 676.416 543.31 676.416C535.054 676.416 527.854 682.992 527.854 691.536ZM555.184 708.72C557.104 710.064 560.704 711.216 563.968 711.216C571.168 711.216 576.784 708.144 578.272 699.264L581.968 677.04H578.32L577.648 681.072C577.024 679.728 574.624 676.416 569.44 676.416C561.424 676.416 555.136 683.088 555.136 691.824C555.136 698.16 558.976 702.624 565.216 702.624C570.688 702.624 573.904 698.976 574.672 698.064L574.288 700.272C573.376 705.648 568.96 707.808 564.208 707.808C560.608 707.808 557.92 706.32 557.056 705.744L555.184 708.72ZM576.4 687.792C576.4 693.984 571.984 699.168 566.128 699.168C561.904 699.168 559.024 696.048 559.024 691.248C559.024 684.72 563.776 679.872 569.296 679.872C573.472 679.872 576.4 682.848 576.4 687.792ZM597.684 676.416C593.892 676.416 590.724 678.72 589.428 681.216L590.148 677.04H586.404L582.228 702H586.02L588.036 690.048C589.044 684.144 591.78 680.208 597.06 680.208L597.684 676.416ZM595.25 695.472C595.25 699.648 598.562 702.624 603.506 702.624C606.866 702.624 609.17 701.376 610.706 699.888L610.802 702H614.066L616.802 685.536C617.714 680.208 615.074 676.416 608.642 676.416C604.418 676.416 601.01 678.048 599.186 679.104L600.29 681.984C602.21 680.976 604.994 679.776 607.922 679.776C611.618 679.776 613.634 681.792 613.058 685.296L612.53 688.368C611.714 687.312 609.506 686.112 606.338 686.112C600.146 686.112 595.25 690.144 595.25 695.472ZM599.186 694.944C599.186 691.728 602.162 689.136 606.338 689.136C609.698 689.136 611.81 690.864 611.81 693.552C611.81 696.96 608.69 699.456 604.658 699.456C601.202 699.456 599.186 697.488 599.186 694.944ZM616.791 710.976H620.583L622.743 697.968C623.319 699.264 625.575 702.624 630.807 702.624C638.823 702.624 645.159 696 645.159 687.312C645.159 680.928 641.175 676.416 634.887 676.416C629.463 676.416 626.247 680.064 625.479 680.976L626.103 677.04H622.455L616.791 710.976ZM623.847 691.248C623.847 685.2 628.167 679.872 634.071 679.872C638.295 679.872 641.223 682.944 641.223 687.744C641.223 694.272 636.519 699.168 630.951 699.168C626.823 699.168 623.847 696.24 623.847 691.248ZM661.253 676.416C657.845 676.416 654.725 678.384 653.141 680.64L655.397 667.296H651.605L645.797 702H649.589L652.133 686.832C652.805 682.704 655.973 679.872 659.813 679.872C663.173 679.872 665.333 682.272 664.661 686.256L662.021 702H665.813L668.405 686.4C669.365 680.736 667.061 676.416 661.253 676.416ZM670.413 691.728C670.413 698.208 674.541 702.624 681.261 702.624C686.925 702.624 690.813 699.6 692.589 697.248L690.285 695.376C688.797 697.056 686.109 699.264 681.885 699.264C676.701 699.264 673.485 695.904 674.397 690.336H694.365C694.509 689.76 694.845 688.368 694.845 686.688C694.845 680.544 691.293 676.416 684.621 676.416C676.749 676.416 670.413 683.232 670.413 691.728ZM674.973 687.504C675.981 682.8 679.869 679.68 684.381 679.68C688.509 679.68 691.677 682.32 691.053 687.504H674.973ZM710.85 676.416C707.058 676.416 703.89 678.72 702.594 681.216L703.314 677.04H699.57L695.394 702H699.186L701.202 690.048C702.21 684.144 704.946 680.208 710.226 680.208L710.85 676.416ZM718.491 711.888H722.139L730.107 664.416H726.459L718.491 711.888ZM740.133 702H747.045C760.005 702 768.165 694.896 768.165 682.176C768.165 673.584 762.741 668.4 752.661 668.4H745.749L740.133 702ZM744.597 698.544L749.061 671.904H752.853C759.909 671.904 764.133 675.936 764.133 682.752C764.133 692.784 757.701 698.544 748.389 698.544H744.597ZM768.487 691.728C768.487 698.208 772.615 702.624 779.335 702.624C784.999 702.624 788.887 699.6 790.663 697.248L788.359 695.376C786.871 697.056 784.183 699.264 779.959 699.264C774.775 699.264 771.559 695.904 772.471 690.336H792.439C792.583 689.76 792.919 688.368 792.919 686.688C792.919 680.544 789.367 676.416 782.695 676.416C774.823 676.416 768.487 683.232 768.487 691.728ZM773.047 687.504C774.055 682.8 777.943 679.68 782.455 679.68C786.583 679.68 789.751 682.32 789.127 687.504H773.047ZM804.316 702L818.092 677.04H814.012L802.924 697.728L798.7 677.04H794.668L800.14 702H804.316ZM815.835 691.728C815.835 698.208 819.963 702.624 826.683 702.624C832.347 702.624 836.235 699.6 838.011 697.248L835.707 695.376C834.219 697.056 831.531 699.264 827.307 699.264C822.123 699.264 818.907 695.904 819.819 690.336H839.787C839.931 689.76 840.267 688.368 840.267 686.688C840.267 680.544 836.715 676.416 830.043 676.416C822.171 676.416 815.835 683.232 815.835 691.728ZM820.395 687.504C821.403 682.8 825.291 679.68 829.803 679.68C833.931 679.68 837.099 682.32 836.475 687.504H820.395ZM840.815 702H844.607L850.415 667.296H846.623L840.815 702ZM853.336 691.104C853.336 684.864 858.184 679.872 864.232 679.872C868.984 679.872 872.008 683.328 872.008 687.984C872.008 694.272 867.064 699.168 861.016 699.168C856.312 699.168 853.336 695.808 853.336 691.104ZM849.4 691.536C849.4 697.968 853.768 702.624 860.44 702.624C868.792 702.624 875.896 696 875.896 687.552C875.896 681.12 871.576 676.416 864.856 676.416C856.6 676.416 849.4 682.992 849.4 691.536ZM875.05 710.976H878.842L881.002 697.968C881.578 699.264 883.834 702.624 889.066 702.624C897.082 702.624 903.418 696 903.418 687.312C903.418 680.928 899.434 676.416 893.146 676.416C887.722 676.416 884.506 680.064 883.738 680.976L884.362 677.04H880.714L875.05 710.976ZM882.106 691.248C882.106 685.2 886.426 679.872 892.33 679.872C896.554 679.872 899.482 682.944 899.482 687.744C899.482 694.272 894.778 699.168 889.21 699.168C885.082 699.168 882.106 696.24 882.106 691.248ZM904.295 691.728C904.295 698.208 908.423 702.624 915.143 702.624C920.807 702.624 924.695 699.6 926.471 697.248L924.167 695.376C922.679 697.056 919.991 699.264 915.767 699.264C910.583 699.264 907.367 695.904 908.279 690.336H928.247C928.391 689.76 928.727 688.368 928.727 686.688C928.727 680.544 925.175 676.416 918.503 676.416C910.631 676.416 904.295 683.232 904.295 691.728ZM908.855 687.504C909.863 682.8 913.751 679.68 918.263 679.68C922.391 679.68 925.559 682.32 924.935 687.504H908.855ZM944.732 676.416C940.94 676.416 937.772 678.72 936.476 681.216L937.196 677.04H933.452L929.276 702H933.068L935.084 690.048C936.092 684.144 938.828 680.208 944.108 680.208L944.732 676.416ZM952.373 711.888H956.021L963.989 664.416H960.341L952.373 711.888ZM974.014 702H990.478L991.054 698.496H978.478L980.494 686.64H991.006L991.582 683.136H981.07L982.942 671.952H994.99L995.566 668.4H979.63L974.014 702ZM1009.76 676.416C1006.3 676.416 1003.18 678.384 1001.6 680.64L1002.22 677.04H998.477L994.301 702H998.093L1000.64 686.832C1001.31 682.704 1004.43 679.872 1008.27 679.872C1011.68 679.872 1013.79 682.272 1013.12 686.256L1010.48 702H1014.27L1016.86 686.4C1017.82 680.736 1015.56 676.416 1009.76 676.416ZM1023.24 677.04H1020.21L1019.69 680.256H1022.61L1020.41 693.936C1019.49 699.552 1021.51 702.336 1026.07 702.336C1027.37 702.336 1028.37 702.192 1028.37 702.192L1028.95 698.784C1028.95 698.784 1028.18 698.88 1027.7 698.88C1024.68 698.88 1023.48 697.776 1024.25 693.12L1026.41 680.256H1031.88L1032.41 677.04H1026.93L1027.85 671.808H1024.15L1023.24 677.04ZM1046.37 676.416C1042.58 676.416 1039.41 678.72 1038.11 681.216L1038.83 677.04H1035.09L1030.91 702H1034.71L1036.72 690.048C1037.73 684.144 1040.47 680.208 1045.75 680.208L1046.37 676.416ZM1043.72 691.728C1043.72 698.208 1047.85 702.624 1054.57 702.624C1060.23 702.624 1064.12 699.6 1065.89 697.248L1063.59 695.376C1062.1 697.056 1059.41 699.264 1055.19 699.264C1050.01 699.264 1046.79 695.904 1047.7 690.336H1067.67C1067.81 689.76 1068.15 688.368 1068.15 686.688C1068.15 680.544 1064.6 676.416 1057.93 676.416C1050.05 676.416 1043.72 683.232 1043.72 691.728ZM1048.28 687.504C1049.29 682.8 1053.17 679.68 1057.69 679.68C1061.81 679.68 1064.98 682.32 1064.36 687.504H1048.28ZM1067.21 710.976H1071L1073.16 697.968C1073.74 699.264 1075.99 702.624 1081.23 702.624C1089.24 702.624 1095.58 696 1095.58 687.312C1095.58 680.928 1091.59 676.416 1085.31 676.416C1079.88 676.416 1076.67 680.064 1075.9 680.976L1076.52 677.04H1072.87L1067.21 710.976ZM1074.27 691.248C1074.27 685.2 1078.59 679.872 1084.49 679.872C1088.71 679.872 1091.64 682.944 1091.64 687.744C1091.64 694.272 1086.94 699.168 1081.37 699.168C1077.24 699.168 1074.27 696.24 1074.27 691.248ZM1111.67 676.416C1107.88 676.416 1104.71 678.72 1103.42 681.216L1104.14 677.04H1100.39L1096.22 702H1100.01L1102.02 690.048C1103.03 684.144 1105.77 680.208 1111.05 680.208L1111.67 676.416ZM1109.02 691.728C1109.02 698.208 1113.15 702.624 1119.87 702.624C1125.53 702.624 1129.42 699.6 1131.2 697.248L1128.89 695.376C1127.4 697.056 1124.72 699.264 1120.49 699.264C1115.31 699.264 1112.09 695.904 1113 690.336H1132.97C1133.12 689.76 1133.45 688.368 1133.45 686.688C1133.45 680.544 1129.9 676.416 1123.23 676.416C1115.36 676.416 1109.02 683.232 1109.02 691.728ZM1113.58 687.504C1114.59 682.8 1118.48 679.68 1122.99 679.68C1127.12 679.68 1130.28 682.32 1129.66 687.504H1113.58ZM1149.46 676.416C1146 676.416 1142.88 678.384 1141.3 680.64L1141.92 677.04H1138.18L1134 702H1137.79L1140.34 686.832C1141.01 682.704 1144.13 679.872 1147.97 679.872C1151.38 679.872 1153.49 682.272 1152.82 686.256L1150.18 702H1153.97L1156.56 686.4C1157.52 680.736 1155.27 676.416 1149.46 676.416ZM1158.62 691.728C1158.62 698.208 1162.75 702.624 1169.47 702.624C1175.13 702.624 1179.02 699.6 1180.79 697.248L1178.49 695.376C1177 697.056 1174.31 699.264 1170.09 699.264C1164.91 699.264 1161.69 695.904 1162.6 690.336H1182.57C1182.71 689.76 1183.05 688.368 1183.05 686.688C1183.05 680.544 1179.5 676.416 1172.83 676.416C1164.95 676.416 1158.62 683.232 1158.62 691.728ZM1163.18 687.504C1164.19 682.8 1168.07 679.68 1172.59 679.68C1176.71 679.68 1179.88 682.32 1179.26 687.504H1163.18ZM1192.1 702.624C1195.5 702.624 1198.67 700.656 1200.21 698.4L1199.58 702H1203.38L1207.55 677.04H1203.71L1201.17 692.208C1200.5 696.336 1197.38 699.168 1193.54 699.168C1190.18 699.168 1188.02 696.768 1188.69 692.784L1191.33 677.04H1187.54L1184.94 692.64C1183.98 698.304 1186.29 702.624 1192.1 702.624ZM1223.2 676.416C1219.41 676.416 1216.24 678.72 1214.94 681.216L1215.66 677.04H1211.92L1207.74 702H1211.53L1213.55 690.048C1214.56 684.144 1217.29 680.208 1222.57 680.208L1223.2 676.416Z" fill="white"/>
<line x1="222" y1="344" x2="702" y2="344" stroke="white" stroke-width="4"/>
<line x1="732" y1="344" x2="784" y2="344" stroke="white" stroke-width="4"/>
<ellipse cx="-11.5" cy="1149" rx="297.5" ry="298" fill="url(#paint1_radial_301_2)"/>
<ellipse cx="1784.5" cy="277" rx="297.5" ry="298" fill="url(#paint2_radial_301_2)"/>
<ellipse cx="641.5" cy="1149" rx="741.5" ry="743" fill="url(#paint3_radial_301_2)"/>
<ellipse cx="22.5" cy="9" rx="297.5" ry="298" fill="url(#paint4_radial_301_2)" fill-opacity="0.5"/>
<ellipse cx="581.5" cy="-78" rx="741.5" ry="743" fill="url(#paint5_radial_301_2)"/>
</g>
<defs>
<linearGradient id="paint0_linear_301_2" x1="828.5" y1="0" x2="828.5" y2="1149" gradientUnits="userSpaceOnUse">
<stop stop-color="#292C2D"/>
<stop offset="1" stop-color="#06213A"/>
</linearGradient>
<radialGradient id="paint1_radial_301_2" cx="0" cy="0" r="1" gradientUnits="userSpaceOnUse" gradientTransform="translate(-11.5 1149) rotate(90) scale(298 297.5)">
<stop stop-color="#2220B0" stop-opacity="0.3"/>
<stop offset="0.921875" stop-color="#257C98" stop-opacity="0.0234375"/>
<stop offset="1" stop-color="#30E9BC" stop-opacity="0"/>
</radialGradient>
<radialGradient id="paint2_radial_301_2" cx="0" cy="0" r="1" gradientUnits="userSpaceOnUse" gradientTransform="translate(1784.5 277) rotate(90) scale(298 297.5)">
<stop stop-color="#2220B0" stop-opacity="0.3"/>
<stop offset="0.921875" stop-color="#257C98" stop-opacity="0.0234375"/>
<stop offset="1" stop-color="#30E9BC" stop-opacity="0"/>
</radialGradient>
<radialGradient id="paint3_radial_301_2" cx="0" cy="0" r="1" gradientUnits="userSpaceOnUse" gradientTransform="translate(641.5 1149) rotate(90) scale(743 741.5)">
<stop stop-color="#8C8C8C" stop-opacity="0.3"/>
<stop offset="0.921875" stop-color="#257C98" stop-opacity="0.0234375"/>
<stop offset="1" stop-color="#30E9BC" stop-opacity="0"/>
</radialGradient>
<radialGradient id="paint4_radial_301_2" cx="0" cy="0" r="1" gradientUnits="userSpaceOnUse" gradientTransform="translate(22.5 9) rotate(90) scale(298 297.5)">
<stop stop-color="#2220B0" stop-opacity="0.3"/>
<stop offset="0.921875" stop-color="#257C98" stop-opacity="0.0234375"/>
<stop offset="1" stop-color="#30E9BC" stop-opacity="0"/>
</radialGradient>
<radialGradient id="paint5_radial_301_2" cx="0" cy="0" r="1" gradientUnits="userSpaceOnUse" gradientTransform="translate(581.5 -78) rotate(90) scale(743 741.5)">
<stop stop-color="#0E0E0E" stop-opacity="0.3"/>
<stop offset="0.921875" stop-color="#257C98" stop-opacity="0.0234375"/>
<stop offset="1" stop-color="#30E9BC" stop-opacity="0"/>
</radialGradient>
<clipPath id="clip0_301_2">
<rect width="1657" height="1149" fill="white"/>
</clipPath>
</defs>
</svg>
